<?xml version="1.0" encoding="utf-8"?>
<!-- Generator: Adobe Illustrator 26.2.0, SVG Export Plug-In . SVG Version: 6.00 Build 0)  -->
<svg version="1.1" id="레이어_1" xmlns="http://www.w3.org/2000/svg" xmlns:xlink="http://www.w3.org/1999/xlink" x="0px"
	 y="0px" viewBox="0 0 487.8 258.1" style="enable-background:new 0 0 487.8 258.1;" xml:space="preserve">
<style type="text/css">
	.st0{opacity:0.92;}
	.st1{opacity:0.48;}
	.st2{fill:url(#SVGID_1_);}
	.st3{opacity:0.26;}
	.st4{fill:url(#SVGID_00000147189779622258936970000015382854167563164055_);}
	.st5{fill:url(#SVGID_00000057847122837148375630000017980984273220659594_);}
	.st6{opacity:0.68;}
	.st7{fill:none;stroke:url(#SVGID_00000121244118027947969520000008463094080541475495_);stroke-width:2;stroke-miterlimit:10;}
	.st8{opacity:0.62;}
	.st9{fill:none;stroke:url(#SVGID_00000145048908365197913010000009653278363908216192_);stroke-width:2;stroke-miterlimit:10;}
	.st10{fill:#FFFFFF;}
</style>
<g>
	<g class="st0">
		
			<image style="overflow:visible;" width="762" height="157" xlink:href="FC5E1B367AD7530C.png"  transform="matrix(0.48 0 0 0.48 -20.64 187.2)">
		</image>
	</g>
	<g>
		
			<image style="overflow:visible;" width="644" height="240" xlink:href="FC5E1B367AD7530D.png"  transform="matrix(0.48 0 0 0.48 180.96 104.16)">
		</image>
	</g>
	<g>
		
			<image style="overflow:visible;" width="644" height="240" xlink:href="FC5E1B367AD7530B.png"  transform="matrix(0.48 0 0 0.48 120.48 144.96)">
		</image>
	</g>
	<g class="st1">
		
			<image style="overflow:visible;" width="739" height="176" xlink:href="FC5E1B367AD75314.png"  transform="matrix(0.48 0 0 0.48 9.6 137.28)">
		</image>
	</g>
	<linearGradient id="SVGID_1_" gradientUnits="userSpaceOnUse" x1="193.9277" y1="184.8697" x2="193.9277" y2="15.516">
		<stop  offset="9.155273e-07" style="stop-color:#E6E6E6"/>
		<stop  offset="1" style="stop-color:#FFFFFF"/>
	</linearGradient>
	<path class="st2" d="M328.5,184.9H59.3c-3.9,0-7-3.1-7-7V22.5c0-3.9,3.1-7,7-7h269.2c3.9,0,7,3.1,7,7v155.4
		C335.5,181.7,332.4,184.9,328.5,184.9z"/>
	<g class="st3">
		
			<linearGradient id="SVGID_00000052801229443670727180000013285236299039970481_" gradientUnits="userSpaceOnUse" x1="193.9277" y1="184.8697" x2="193.9277" y2="15.516">
			<stop  offset="0" style="stop-color:#000000"/>
			<stop  offset="1.530605e-02" style="stop-color:#040404"/>
			<stop  offset="0.166" style="stop-color:#2C2C2C"/>
			<stop  offset="0.286" style="stop-color:#444444"/>
			<stop  offset="0.3597" style="stop-color:#4D4D4D"/>
			<stop  offset="0.4319" style="stop-color:#545454"/>
			<stop  offset="0.5358" style="stop-color:#676767"/>
			<stop  offset="0.6589" style="stop-color:#868686"/>
			<stop  offset="0.7967" style="stop-color:#B2B2B2"/>
			<stop  offset="0.9449" style="stop-color:#E9E9E9"/>
			<stop  offset="1" style="stop-color:#FFFFFF"/>
		</linearGradient>
		<path style="fill:url(#SVGID_00000052801229443670727180000013285236299039970481_);" d="M328.5,17.5c2.8,0,5,2.2,5,5v155.4
			c0,2.8-2.2,5-5,5H59.3c-2.8,0-5-2.2-5-5V22.5c0-2.8,2.2-5,5-5H328.5 M328.5,15.5H59.3c-3.9,0-7,3.1-7,7v155.4c0,3.9,3.1,7,7,7
			h269.2c3.9,0,7-3.1,7-7V22.5C335.5,18.7,332.4,15.5,328.5,15.5L328.5,15.5z"/>
	</g>
	<g>
		
			<linearGradient id="SVGID_00000036951981122014258080000000961165325587524023_" gradientUnits="userSpaceOnUse" x1="14.2404" y1="138.8656" x2="307.3253" y2="138.8656">
			<stop  offset="3.437262e-03" style="stop-color:#ED7D52"/>
			<stop  offset="1" style="stop-color:#FF442D"/>
		</linearGradient>
		<path style="fill:url(#SVGID_00000036951981122014258080000000961165325587524023_);" d="M303.3,53.3H18.2c-2.2,0-4,1.8-4,4v61.8
			c9.3,1.8,16.4,9.9,16.4,19.8c0,9.8-7,18-16.4,19.8v61.8c0,2.2,1.8,4,4,4h285.1c2.2,0,4-1.8,4-4v-61.8c-9.3-1.8-16.4-9.9-16.4-19.8
			c0-9.8,7-18,16.4-19.8V57.3C307.3,55.1,305.5,53.3,303.3,53.3z"/>
		<g class="st6">
			
				<linearGradient id="SVGID_00000029012451421042541780000001937839559954285739_" gradientUnits="userSpaceOnUse" x1="4.9153" y1="209.6348" x2="231.2946" y2="-16.7445">
				<stop  offset="0" style="stop-color:#FFFFFF;stop-opacity:0"/>
				<stop  offset="0.4393" style="stop-color:#FFFFFF"/>
				<stop  offset="0.9293" style="stop-color:#FFFFFF;stop-opacity:0.126"/>
				<stop  offset="1" style="stop-color:#FFFFFF;stop-opacity:0"/>
			</linearGradient>
			
				<path style="fill:none;stroke:url(#SVGID_00000029012451421042541780000001937839559954285739_);stroke-width:2;stroke-miterlimit:10;" d="
				M15.7,219.4v-59.6C25.3,156.9,32,148,32,137.8c0-10.2-6.8-19.1-16.4-21.9V58.1c0-1.7,1.4-3.1,3.1-3.1H302"/>
		</g>
		<g class="st8">
			
				<linearGradient id="SVGID_00000003065959582247561370000013170436804262429097_" gradientUnits="userSpaceOnUse" x1="88.8531" y1="294.2576" x2="316.1749" y2="66.9358">
				<stop  offset="0" style="stop-color:#D90000;stop-opacity:0"/>
				<stop  offset="0.5093" style="stop-color:#E90000"/>
				<stop  offset="1" style="stop-color:#D00000;stop-opacity:0"/>
			</linearGradient>
			
				<path style="fill:none;stroke:url(#SVGID_00000003065959582247561370000013170436804262429097_);stroke-width:2;stroke-miterlimit:10;" d="
				M304.4,57.1c0.7,0,1.3,0.6,1.3,1.3V118c-9.6,2.8-16.4,11.7-16.4,21.9c0,10.2,6.8,19.1,16.4,21.9v57.5c0,1.9-1.5,3.4-3.4,3.4H19.3
				c-0.7,0-1.3-0.6-1.3-1.3"/>
		</g>
	</g>
	<g>
		<path class="st10" d="M188.9,111.7c-4.5,0-8.2,3.7-8.2,8.2c0,4.5,3.7,8.2,8.2,8.2c4.5,0,8.2-3.7,8.2-8.2
			C197.2,115.4,193.5,111.7,188.9,111.7z M188.9,124.4c-2.5,0-4.5-2-4.5-4.5c0-2.5,2-4.5,4.5-4.5c2.5,0,4.5,2,4.5,4.5
			C193.5,122.4,191.4,124.4,188.9,124.4z"/>
		<rect x="160.1" y="111.7" class="st10" width="3.7" height="16.5"/>
		<path class="st10" d="M156.8,128.2v-16.5h-3.7v1.4c-1.3-0.9-2.9-1.4-4.5-1.4c-4.5,0-8.2,3.7-8.2,8.2c0,4.5,3.7,8.2,8.2,8.2
			c1.7,0,3.2-0.5,4.5-1.4v1.4H156.8z M148.6,124.4c-2.5,0-4.5-2-4.5-4.5c0-2.5,2-4.5,4.5-4.5c2.5,0,4.5,2,4.5,4.5
			C153.1,122.4,151.1,124.4,148.6,124.4z"/>
		<path class="st10" d="M129.6,128.2c1.7,0,3.2-0.5,4.5-1.4v1.4h3.7v-22.1h-3.7v7c-1.3-0.9-2.9-1.4-4.5-1.4c-4.5,0-8.2,3.7-8.2,8.2
			C121.4,124.4,125.1,128.2,129.6,128.2z M129.6,115.4c2.5,0,4.5,2,4.5,4.5c0,2.5-2,4.5-4.5,4.5c-2.5,0-4.5-2-4.5-4.5
			C125.1,117.4,127.1,115.4,129.6,115.4z"/>
		<path class="st10" d="M178.9,123c0-0.9-0.3-3.5-5.3-4.8c-0.9-0.2-3.3-0.8-3.3-2c0-1,1.3-1.4,2.2-1.4c2.5,0,2.6,1.9,2.6,1.9l3.6,0
			c0,0-0.3-5.1-6.1-5.1c-2.8,0-6,1.4-6.1,4.7c0,0.2-0.3,3.2,4.7,4.4c2.6,0.6,4,1.1,4,2.6c0,0-0.2,1.6-2.3,1.6
			c-3.2,0-2.9-2.6-2.9-2.6h-3.7c0,0-0.6,5.8,6.5,5.8C172.8,128.1,178.9,128.4,178.9,123z"/>
	</g>
	<g>
		<g>
			<rect x="89.1" y="140.4" class="st10" width="1.7" height="30.3"/>
		</g>
		<g>
			<rect x="91.5" y="140.4" class="st10" width="0.8" height="30.3"/>
		</g>
		<g>
			<rect x="94" y="140.4" class="st10" width="0.8" height="30.3"/>
		</g>
		<g>
			<rect x="98.1" y="140.4" class="st10" width="0.8" height="30.3"/>
		</g>
		<g>
			<rect x="100.6" y="140.4" class="st10" width="0.8" height="30.3"/>
		</g>
		<g>
			<rect x="102.3" y="140.4" class="st10" width="1.7" height="30.3"/>
		</g>
		<g>
			<rect x="107.2" y="140.4" class="st10" width="0.8" height="30.3"/>
		</g>
		<g>
			<rect x="109.7" y="140.4" class="st10" width="0.8" height="30.3"/>
		</g>
		<g>
			<rect x="113.8" y="140.4" class="st10" width="1.7" height="30.3"/>
		</g>
		<g>
			<rect x="116.3" y="140.4" class="st10" width="0.8" height="30.3"/>
		</g>
		<g>
			<rect x="120.4" y="140.4" class="st10" width="0.8" height="30.3"/>
		</g>
		<g>
			<rect x="122.1" y="140.4" class="st10" width="1.7" height="30.3"/>
		</g>
		<g>
			<rect x="125.4" y="140.4" class="st10" width="0.8" height="30.3"/>
		</g>
		<g>
			<rect x="129.5" y="140.4" class="st10" width="0.8" height="30.3"/>
		</g>
		<g>
			<rect x="132" y="140.4" class="st10" width="1.7" height="30.3"/>
		</g>
		<g>
			<rect x="134.5" y="140.4" class="st10" width="0.8" height="30.3"/>
		</g>
		<g>
			<rect x="136.1" y="140.4" class="st10" width="1.7" height="30.3"/>
		</g>
		<g>
			<rect x="139.4" y="140.4" class="st10" width="0.8" height="30.3"/>
		</g>
		<g>
			<rect x="143.6" y="140.4" class="st10" width="0.8" height="30.3"/>
		</g>
		<g>
			<rect x="145.2" y="140.4" class="st10" width="1.7" height="30.3"/>
		</g>
		<g>
			<rect x="150.2" y="140.4" class="st10" width="0.8" height="30.3"/>
		</g>
		<g>
			<rect x="152.6" y="140.4" class="st10" width="0.8" height="30.3"/>
		</g>
		<g>
			<rect x="155.1" y="140.4" class="st10" width="1.7" height="30.3"/>
		</g>
		<g>
			<rect x="157.6" y="140.4" class="st10" width="0.8" height="30.3"/>
		</g>
		<g>
			<rect x="161.7" y="140.4" class="st10" width="0.8" height="30.3"/>
		</g>
		<g>
			<rect x="164.2" y="140.4" class="st10" width="2.5" height="30.3"/>
		</g>
		<g>
			<rect x="168.3" y="140.4" class="st10" width="1.7" height="30.3"/>
		</g>
		<g>
			<rect x="170.8" y="140.4" class="st10" width="0.8" height="30.3"/>
		</g>
		<g>
			<rect x="172.5" y="140.4" class="st10" width="2.5" height="30.3"/>
		</g>
		<g>
			<rect x="175.8" y="140.4" class="st10" width="3.3" height="30.3"/>
		</g>
		<g>
			<rect x="179.9" y="140.4" class="st10" width="2.5" height="30.3"/>
		</g>
		<g>
			<rect x="183.2" y="140.4" class="st10" width="1.7" height="30.3"/>
		</g>
		<g>
			<rect x="185.7" y="140.4" class="st10" width="2.5" height="30.3"/>
		</g>
		<g>
			<rect x="189" y="140.4" class="st10" width="0.8" height="30.3"/>
		</g>
		<g>
			<rect x="190.6" y="140.4" class="st10" width="2.5" height="30.3"/>
		</g>
		<g>
			<rect x="193.9" y="140.4" class="st10" width="1.7" height="30.3"/>
		</g>
		<g>
			<rect x="198.1" y="140.4" class="st10" width="0.8" height="30.3"/>
		</g>
		<g>
			<rect x="202.2" y="140.4" class="st10" width="0.8" height="30.3"/>
		</g>
		<g>
			<rect x="203.8" y="140.4" class="st10" width="1.7" height="30.3"/>
		</g>
		<g>
			<rect x="207.1" y="140.4" class="st10" width="2.5" height="30.3"/>
		</g>
		<g>
			<rect x="210.4" y="140.4" class="st10" width="3.3" height="30.3"/>
		</g>
		<g>
			<rect x="214.6" y="140.4" class="st10" width="0.8" height="30.3"/>
		</g>
		<g>
			<rect x="216.2" y="140.4" class="st10" width="1.7" height="30.3"/>
		</g>
		<g>
			<rect x="220.4" y="140.4" class="st10" width="2.5" height="30.3"/>
		</g>
		<g>
			<rect x="223.7" y="140.4" class="st10" width="0.8" height="30.3"/>
		</g>
		<g>
			<rect x="225.3" y="140.4" class="st10" width="1.7" height="30.3"/>
		</g>
	</g>
</g>
</svg>
