<?xml version="1.0" encoding="utf-8"?>
<!-- Generator: Adobe Illustrator 26.2.0, SVG Export Plug-In . SVG Version: 6.00 Build 0)  -->
<svg version="1.1" id="레이어_1" xmlns="http://www.w3.org/2000/svg" xmlns:xlink="http://www.w3.org/1999/xlink" x="0px"
	 y="0px" viewBox="0 0 421.5 361.8" style="enable-background:new 0 0 421.5 361.8;" xml:space="preserve">
<style type="text/css">
	.st0{opacity:0.92;}
	.st1{fill:#B78554;}
	.st2{opacity:0.43;fill:url(#SVGID_1_);}
	.st3{fill:#D1A272;}
	.st4{fill:#F1C492;}
	.st5{opacity:0.43;fill:url(#SVGID_00000050641994034350547120000000492906536450935720_);}
	.st6{opacity:0.55;fill:url(#SVGID_00000021811005060847119940000007031281039875157404_);}
	.st7{opacity:0.55;fill:url(#SVGID_00000177480437753942785190000015051867496972330643_);}
	.st8{opacity:0.55;fill:url(#SVGID_00000044170142612191255640000012676988682553853613_);}
	.st9{clip-path:url(#SVGID_00000057150129996564557730000012616951138338467973_);fill:#FFFFFF;}
	.st10{clip-path:url(#SVGID_00000057150129996564557730000012616951138338467973_);}
	.st11{fill:url(#SVGID_00000129193089186307854080000001092669535466706841_);}
	.st12{opacity:0.77;fill:#FFFFFF;}
	.st13{font-family:'Pretendard-SemiBold-KSCpc-EUC-H';}
	.st14{font-size:113.1393px;}
	.st15{letter-spacing:-6;}
	.st16{opacity:0.86;fill:#4D4D4D;}
	.st17{fill:#848484;}
	.st18{fill:#353434;}
	.st19{opacity:0.65;fill:url(#SVGID_00000000918129398248348990000006492428285800401026_);}
	.st20{fill:none;stroke:#000000;stroke-width:0.25;stroke-miterlimit:10;}
	.st21{fill:#5B504B;}
	.st22{fill:#BFBFBF;}
	.st23{opacity:0.65;fill:url(#SVGID_00000168814702157619523790000010406714353622434218_);}
	.st24{fill:#727373;}
	
		.st25{opacity:0.62;fill:none;stroke:url(#SVGID_00000073687179441190278390000001415874589058844576_);stroke-width:4;stroke-miterlimit:10;}
</style>
<g>
	<g>
		
			<image style="overflow:visible;" width="644" height="446" xlink:href="FC66864334E5A757.png"  transform="matrix(0.48 0 0 0.48 134.88 33.12)">
		</image>
	</g>
	<g class="st0">
		
			<image style="overflow:visible;" width="574" height="178" xlink:href="FC66864334E5A755.png"  transform="matrix(0.48 0 0 0.48 -20.16 219.36)">
		</image>
	</g>
	<g class="st0">
		
			<image style="overflow:visible;" width="581" height="183" xlink:href="FC66864334E5A75B.png"  transform="matrix(0.48 0 0 0.48 63.36 185.28)">
		</image>
	</g>
	<g class="st0">
		
			<image style="overflow:visible;" width="250" height="227" xlink:href="FC66864334E5A75D.png"  transform="matrix(0.48 0 0 0.48 262.56 164.64)">
		</image>
	</g>
	<polygon class="st1" points="347.9,203.6 305.7,237.1 305.7,166.8 347.9,139.7 	"/>
	<linearGradient id="SVGID_1_" gradientUnits="userSpaceOnUse" x1="305.4818" y1="167.0461" x2="344.9783" y2="206.5426">
		<stop  offset="0" style="stop-color:#FFFFFF;stop-opacity:0"/>
		<stop  offset="1" style="stop-color:#FFFFFF"/>
	</linearGradient>
	<polygon class="st2" points="347.9,203.6 305.7,237.1 305.7,166.8 347.9,139.7 	"/>
	<polygon class="st3" points="150.9,231.6 305.7,237.1 305.7,166.8 150.9,158.2 	"/>
	<polygon class="st4" points="347.9,139.7 305.7,166.8 150.9,158.2 214.2,135.3 	"/>
	<polygon class="st4" points="218.8,161.5 67.7,161.5 15.8,185.2 219.2,191.6 	"/>
	<polygon class="st1" points="295,155.7 195.6,178.4 195.6,40.9 295,26.1 	"/>
	
		<linearGradient id="SVGID_00000173147802600329809610000006082884348884844457_" gradientUnits="userSpaceOnUse" x1="189.8118" y1="46.7349" x2="296.8502" y2="153.7733">
		<stop  offset="0" style="stop-color:#FFFFFF;stop-opacity:0"/>
		<stop  offset="1" style="stop-color:#FFFFFF"/>
	</linearGradient>
	<polygon style="opacity:0.43;fill:url(#SVGID_00000173147802600329809610000006082884348884844457_);" points="295,155.7 
		195.6,178.4 195.6,40.9 295,26.1 	"/>
	<polygon class="st3" points="90.8,158.8 195.6,178.4 195.6,40.9 90.8,29.2 	"/>
	<polygon class="st4" points="90.8,29.2 195.6,40.9 295,26.1 186.3,13.3 	"/>
	
		<linearGradient id="SVGID_00000166654156031607624060000016348198074260897462_" gradientUnits="userSpaceOnUse" x1="249.4107" y1="135.3191" x2="249.4107" y2="166.8281">
		<stop  offset="0" style="stop-color:#FFFFFF;stop-opacity:0"/>
		<stop  offset="1" style="stop-color:#FFFFFF"/>
	</linearGradient>
	<polygon style="opacity:0.55;fill:url(#SVGID_00000166654156031607624060000016348198074260897462_);" points="347.9,139.7 
		305.7,166.8 150.9,158.2 214.2,135.3 	"/>
	
		<linearGradient id="SVGID_00000168826969729034689550000018360936826528219023_" gradientUnits="userSpaceOnUse" x1="117.5442" y1="161.512" x2="117.5442" y2="191.5816">
		<stop  offset="0" style="stop-color:#FFFFFF;stop-opacity:0"/>
		<stop  offset="1" style="stop-color:#FFFFFF"/>
	</linearGradient>
	<polygon style="opacity:0.55;fill:url(#SVGID_00000168826969729034689550000018360936826528219023_);" points="218.8,161.5 
		67.7,161.5 15.8,185.2 219.2,191.6 	"/>
	
		<linearGradient id="SVGID_00000174559779978803973510000009867191951352641173_" gradientUnits="userSpaceOnUse" x1="192.9011" y1="13.2817" x2="192.9011" y2="40.9084">
		<stop  offset="0" style="stop-color:#FFFFFF;stop-opacity:0"/>
		<stop  offset="1" style="stop-color:#FFFFFF"/>
	</linearGradient>
	<polygon style="opacity:0.55;fill:url(#SVGID_00000174559779978803973510000009867191951352641173_);" points="90.8,29.2 
		195.6,40.9 295,26.1 186.3,13.3 	"/>
	<polygon class="st3" points="219.2,269.7 15.8,263.4 15.8,185.2 219.2,185.2 	"/>
</g>
<g>
	<g>
		<g>
			<defs>
				<circle id="SVGID_00000067226497879654101290000008683159519043744682_" cx="203.8" cy="198.4" r="88.4"/>
			</defs>
			<clipPath id="SVGID_00000147920698998754198230000006322178133817680039_">
				<use xlink:href="#SVGID_00000067226497879654101290000008683159519043744682_"  style="overflow:visible;"/>
			</clipPath>
			
				<rect x="-183.8" y="-172.3" style="clip-path:url(#SVGID_00000147920698998754198230000006322178133817680039_);fill:#FFFFFF;" width="766.3" height="667.9"/>
			<g style="clip-path:url(#SVGID_00000147920698998754198230000006322178133817680039_);">
				
					<image style="overflow:visible;" width="583" height="583" xlink:href="FC66864334E5A75F.png"  transform="matrix(0.48 0 0 0.48 57.6 66.72)">
				</image>
			</g>
			<g style="clip-path:url(#SVGID_00000147920698998754198230000006322178133817680039_);">
				
					<image style="overflow:visible;" width="368" height="583" xlink:href="FC66864334E5A75C.png"  transform="matrix(0.48 0 0 0.48 96.96 -9.12)">
				</image>
			</g>
		</g>
		<g>
			
				<linearGradient id="SVGID_00000034787260445946922610000018338229541407433607_" gradientUnits="userSpaceOnUse" x1="279.3943" y1="198.4402" x2="128.2815" y2="198.4402">
				<stop  offset="0" style="stop-color:#FFFFFF;stop-opacity:0"/>
				<stop  offset="1" style="stop-color:#FFFFFF"/>
			</linearGradient>
			<path style="fill:url(#SVGID_00000034787260445946922610000018338229541407433607_);" d="M203.8,126.9c19.1,0,37.1,7.4,50.6,21
				c13.5,13.5,21,31.5,21,50.6s-7.4,37.1-21,50.6c-13.5,13.5-31.5,21-50.6,21c-19.1,0-37.1-7.4-50.6-21c-13.5-13.5-21-31.5-21-50.6
				s7.4-37.1,21-50.6C166.8,134.3,184.7,126.9,203.8,126.9 M203.8,122.9c-19.3,0-38.7,7.4-53.4,22.1c-29.5,29.5-29.5,77.3,0,106.9
				c14.8,14.8,34.1,22.1,53.4,22.1s38.7-7.4,53.4-22.1c29.5-29.5,29.5-77.3,0-106.9C242.5,130.3,223.2,122.9,203.8,122.9
				L203.8,122.9z"/>
		</g>
		<g>
			
				<image style="overflow:visible;" width="437" height="437" xlink:href="FC66864334E5A754.png"  transform="matrix(0.48 0 0 0.48 98.88 93.6)">
			</image>
		</g>
	</g>
	<text transform="matrix(1 0 0 1 175.5692 242.4323)" class="st12 st13 st14 st15">?</text>
	<g>
		<path d="M282.7,264.1l-9.4,9.4c-1.2,1.2-3.1,1.2-4.3,0l-7.9-7.9l13.7-13.7l7.9,7.9C283.9,261,283.9,263,282.7,264.1z"/>
		<path d="M345.7,336.5L345.7,336.5c-5.4,5.4-14.2,5.4-19.6,0l-42.8-42.8c-1.3-1.3-1.3-3.5,0-4.9l14.7-14.7c1.3-1.3,3.5-1.3,4.9,0
			l42.8,42.8C351.1,322.3,351.1,331.1,345.7,336.5z"/>
		<path class="st16" d="M341.5,335.8L341.5,335.8l-49.4-49.4l9.6-9.6l39.7,39.7C346.8,321.9,346.8,330.5,341.5,335.8z"/>
		<path class="st17" d="M343,329.6L343,329.6l-45.9-45.9l3.7-3.7l42.3,42.3C345.1,324.3,345.1,327.6,343,329.6z"/>
		
			<rect x="267.4" y="260.8" transform="matrix(0.7071 -0.7071 0.7071 0.7071 -109.0173 269.761)" class="st18" width="7.4" height="11.3"/>
		
			<linearGradient id="SVGID_00000007419815444737986490000002095614042881541271_" gradientUnits="userSpaceOnUse" x1="2280.2578" y1="-1129.1721" x2="2280.2578" y2="-1140.4603" gradientTransform="matrix(0.7071 -0.7071 0.7071 0.7071 -538.8278 2681.2981)">
			<stop  offset="0" style="stop-color:#FFFFFF;stop-opacity:0"/>
			<stop  offset="1" style="stop-color:#FFFFFF"/>
		</linearGradient>
		<polygon style="opacity:0.65;fill:url(#SVGID_00000007419815444737986490000002095614042881541271_);" points="276.5,269 
			273.7,271.9 265.7,263.9 268.6,261.1 		"/>
		
			<rect x="285.3" y="263" transform="matrix(0.7071 -0.7071 0.7071 0.7071 -104.525 280.1817)" class="st20" width="1.4" height="6.5"/>
		
			<rect x="274.7" y="253" transform="matrix(0.7071 -0.7071 0.7071 0.7071 -102.3318 271.8335)" class="st21" width="4.4" height="13"/>
		
			<rect x="275.8" y="253" transform="matrix(0.7071 -0.7071 0.7071 0.7071 -102.3318 271.8335)" class="st22" width="2.4" height="13"/>
		<rect x="278.3" y="269.4" transform="matrix(0.7071 -0.7071 0.7071 0.7071 -111.8263 283.0037)" width="14.8" height="14.1"/>
		
			<rect x="281.8" y="275.5" transform="matrix(0.7071 -0.7071 0.7071 0.7071 -114.3678 283.5053)" class="st18" width="6.5" height="8.6"/>
		
			<linearGradient id="SVGID_00000064344183224422682220000015605471716653355956_" gradientUnits="userSpaceOnUse" x1="2280.9829" y1="-1111.2566" x2="2280.9829" y2="-1119.8438" gradientTransform="matrix(0.7071 -0.7071 0.7071 0.7071 -538.8278 2681.2981)">
			<stop  offset="0" style="stop-color:#FFFFFF;stop-opacity:0"/>
			<stop  offset="1" style="stop-color:#FFFFFF"/>
		</linearGradient>
		<polygon style="opacity:0.65;fill:url(#SVGID_00000064344183224422682220000015605471716653355956_);" points="289.4,281.5 
			287.2,283.7 281.1,277.6 283.3,275.5 		"/>
		
			<rect x="286.6" y="271.3" transform="matrix(0.7071 -0.7071 0.7071 0.7071 -110.1381 285.2573)" class="st21" width="5.4" height="8.6"/>
		
			<rect x="289" y="270.8" transform="matrix(-0.7071 0.7071 -0.7071 -0.7071 689.2023 264.6168)" class="st22" width="1.5" height="8.6"/>
		<path d="M288.1,269.4l-9.4,9.4c-1.2,1.2-3.1,1.2-4.2,0l-1.1-1.1c-1.2-1.2-1.2-3.1,0-4.2l9.4-9.4c1.2-1.2,3.1-1.2,4.2,0l1.1,1.1
			C289.3,266.4,289.3,268.3,288.1,269.4z"/>
		
			<rect x="278.7" y="266.3" transform="matrix(0.7071 -0.7071 0.7071 0.7071 -107.8171 278.8181)" class="st18" width="7.9" height="6.5"/>
		
			<rect x="283.7" y="264.2" transform="matrix(0.7071 -0.7071 0.7071 0.7071 -105.7373 279.6795)" class="st24" width="2" height="6.5"/>
		
			<rect x="271.7" y="270" transform="matrix(0.7071 -0.7071 0.7071 0.7071 -109.7433 278.0202)" class="st18" width="18.1" height="2.9"/>
		<rect x="271.7" y="270.9" transform="matrix(0.7071 -0.7071 0.7071 0.7071 -109.7433 278.0202)" width="18.1" height="1.1"/>
		<path d="M267.9,262.5c-34.8,34.8-91.5,34.8-126.3,0s-34.8-91.5,0-126.3c34.8-34.8,91.5-34.8,126.3,0S302.7,227.7,267.9,262.5z
			 M149.3,143.9c-30.6,30.6-30.6,80.4,0,111s80.4,30.6,111,0c30.6-30.6,30.6-80.4,0-111S179.8,113.3,149.3,143.9z"/>
		
			<linearGradient id="SVGID_00000117652481231352378320000012429494898359613317_" gradientUnits="userSpaceOnUse" x1="-12994.5039" y1="-3663.9958" x2="-12822.7344" y2="-3663.9958" gradientTransform="matrix(0.7071 0.7071 -0.7071 0.7071 6741.6694 11917.9443)">
			<stop  offset="0" style="stop-color:#FFFFFF"/>
			<stop  offset="0.5595" style="stop-color:#FFFFFF;stop-opacity:0"/>
			<stop  offset="0.9377" style="stop-color:#FFFFFF;stop-opacity:0.8587"/>
			<stop  offset="1" style="stop-color:#FFFFFF"/>
		</linearGradient>
		
			<circle style="opacity:0.62;fill:none;stroke:url(#SVGID_00000117652481231352378320000012429494898359613317_);stroke-width:4;stroke-miterlimit:10;" cx="204.7" cy="199.3" r="83.9"/>
	</g>
</g>
</svg>
