<?xml version="1.0" encoding="utf-8"?>
<!-- Generator: Adobe Illustrator 26.2.0, SVG Export Plug-In . SVG Version: 6.00 Build 0)  -->
<svg version="1.1" id="레이어_1" xmlns="http://www.w3.org/2000/svg" xmlns:xlink="http://www.w3.org/1999/xlink" x="0px"
	 y="0px" viewBox="0 0 150.8 150.8" style="enable-background:new 0 0 150.8 150.8;" xml:space="preserve">
<style type="text/css">
	.st0{fill:#FF0000;}
	.st1{fill:#FFFFFF;}
</style>
<g>
	<rect class="st0" width="150.8" height="150.8"/>
	<path class="st1" d="M32.7,37.4c-3.6,0-6.6-2.9-6.6-6.6c0-3.6,3-6.6,6.6-6.6c3.6,0,6.6,3,6.6,6.6C39.3,34.5,36.3,37.4,32.7,37.4
		 M32.7,18.8c-6.6,0-12,5.4-12,12c0,6.6,5.4,12,12,12c6.6,0,12-5.4,12-12C44.7,24.2,39.3,18.8,32.7,18.8"/>
	<path class="st1" d="M76,37.4c-3.6,0-6.6-2.9-6.6-6.6c0-3.6,3-6.6,6.6-6.6c3.6,0,6.6,3,6.6,6.6C82.6,34.5,79.6,37.4,76,37.4
		 M76,18.8c-6.6,0-12,5.4-12,12c0,6.6,5.4,12,12,12c6.6,0,12-5.4,12-12C88,24.2,82.6,18.8,76,18.8"/>
	<path class="st1" d="M119.3,37.4c-3.6,0-6.6-2.9-6.6-6.6c0-3.6,3-6.6,6.6-6.6c3.6,0,6.6,3,6.6,6.6
		C125.9,34.5,122.9,37.4,119.3,37.4 M119.3,18.8c-6.6,0-12,5.4-12,12c0,6.6,5.4,12,12,12c6.6,0,12-5.4,12-12
		C131.3,24.2,125.9,18.8,119.3,18.8"/>
	<path class="st1" d="M32.7,80.7c-3.6,0-6.6-2.9-6.6-6.6c0-3.6,3-6.6,6.6-6.6c3.6,0,6.6,3,6.6,6.6C39.3,77.8,36.3,80.7,32.7,80.7
		 M32.7,62.1c-6.6,0-12,5.4-12,12c0,6.6,5.4,12,12,12c6.6,0,12-5.4,12-12C44.7,67.5,39.3,62.1,32.7,62.1"/>
	<path class="st1" d="M76,80.7c-3.6,0-6.6-2.9-6.6-6.6c0-3.6,3-6.6,6.6-6.6c3.6,0,6.6,3,6.6,6.6C82.6,77.8,79.6,80.7,76,80.7
		 M76,62.1c-6.6,0-12,5.4-12,12c0,6.6,5.4,12,12,12c6.6,0,12-5.4,12-12C88,67.5,82.6,62.1,76,62.1"/>
	<path class="st1" d="M119.3,80.7c-3.6,0-6.6-2.9-6.6-6.6c0-3.6,3-6.6,6.6-6.6c3.6,0,6.6,3,6.6,6.6
		C125.9,77.8,122.9,80.7,119.3,80.7 M119.3,62.1c-6.6,0-12,5.4-12,12c0,6.6,5.4,12,12,12c6.6,0,12-5.4,12-12
		C131.3,67.5,125.9,62.1,119.3,62.1"/>
	<path class="st1" d="M119.3,124c-3.6,0-6.6-2.9-6.6-6.6c0-3.6,3-6.6,6.6-6.6c3.6,0,6.6,3,6.6,6.6C125.9,121,122.9,124,119.3,124
		 M119.3,105.4c-6.6,0-12,5.4-12,12c0,6.6,5.4,12,12,12c6.6,0,12-5.4,12-12C131.3,110.8,125.9,105.4,119.3,105.4"/>
	<rect x="77.2" y="105.4" class="st1" width="5.4" height="24"/>
	<path class="st1" d="M67,105.4v2c-1.9-1.3-4.2-2-6.6-2c-6.6,0-12,5.4-12,12c0,6.6,5.4,12,12,12c2.4,0,4.7-0.7,6.6-2v2h5.4v-24H67z
		 M60.3,124c-3.6,0-6.6-2.9-6.6-6.6c0-3.6,3-6.6,6.6-6.6c3.6,0,6.6,3,6.6,6.6C66.9,121,64,124,60.3,124"/>
	<path class="st1" d="M39.3,97.2v10.2c-1.9-1.3-4.2-2-6.6-2c-6.6,0-12,5.4-12,12c0,6.6,5.4,12,12,12c2.4,0,4.7-0.7,6.6-2v2h5.4V97.2
		H39.3z M32.7,124c-3.6,0-6.6-2.9-6.6-6.6c0-3.6,3-6.6,6.6-6.6c3.6,0,6.6,3,6.6,6.6C39.3,121,36.3,124,32.7,124"/>
	<path class="st1" d="M104.6,121.9c0,7.8-8.8,7.5-8.8,7.5c-10.3,0-9.5-8.4-9.5-8.4h5.3c0,0-0.5,3.8,4.3,3.8c3.1,0,3.4-2.4,3.4-2.4
		c0-2.2-2-2.9-5.8-3.7c-7.2-1.7-6.8-6.1-6.8-6.4c0-4.8,4.8-6.9,8.8-6.9c8.5,0,8.9,7.5,8.9,7.5h-5.3c0,0-0.1-2.8-3.8-2.8
		c-1.3,0-3.2,0.5-3.2,2c0,1.8,3.5,2.6,4.8,2.9C104.2,116.8,104.6,120.7,104.6,121.9"/>
</g>
</svg>
